<?xml version="1.0" encoding="UTF-8" standalone="no"?>
<!DOCTYPE svg PUBLIC "-//W3C//DTD SVG 1.1//EN" "http://www.w3.org/Graphics/SVG/1.1/DTD/svg11.dtd">
<svg width="100%" height="100%" viewBox="0 0 256 256" version="1.1" xmlns="http://www.w3.org/2000/svg" xmlns:xlink="http://www.w3.org/1999/xlink" xml:space="preserve" xmlns:serif="http://www.serif.com/" style="fill-rule:evenodd;clip-rule:evenodd;stroke-linejoin:round;stroke-miterlimit:2;">
    <g transform="matrix(1,0,0,1,-1868,0)">
        <g id="icon" transform="matrix(1.7415,0,0,1.62025,-1263.21,0)">
            <rect x="1798" y="0" width="147" height="158" style="fill:none;"/>
            <clipPath id="_clip1">
                <rect x="1798" y="0" width="147" height="158"/>
            </clipPath>
            <g clip-path="url(#_clip1)">
                <g transform="matrix(0.574219,0,0,0.617188,725.359,0)">
                    <rect x="1868" y="0" width="256" height="256" style="fill-opacity:0;"/>
                    <clipPath id="_clip2">
                        <rect x="1868" y="0" width="256" height="256"/>
                    </clipPath>
                    <g clip-path="url(#_clip2)">
                        <g transform="matrix(0.968547,-6.24278e-18,1.88714e-17,-3.08193,71.4975,926.219)">
                            <rect x="1850" y="222" width="274" height="74" style="fill-opacity:0;"/>
                            <clipPath id="_clip3">
                                <rect x="1850" y="222" width="274" height="74"/>
                            </clipPath>
                            <g clip-path="url(#_clip3)">
                                <g id="Logo" transform="matrix(0.919551,-1.86265e-18,5.63062e-18,-0.288984,1717.87,321.364)">
                                    <path d="M352,395.743C356.368,391.251 359.647,383.671 360.465,377.647C361.465,370.263 360.656,360.804 354.094,356.071C353.572,355.694 353.028,355.353 352.467,355.041C352.139,349.989 350.444,344.996 347.217,341.058C344.216,337.398 340.19,335.006 335.569,334.026C329.06,332.645 322.564,331.193 316.075,329.719C318.332,329.05 320.53,328.167 322.638,327.097C328.019,324.371 332.768,320.5 336.689,315.927C336.755,315.979 336.821,316.029 336.889,316.078C339.003,317.667 341.587,318.843 344.125,319.563C348.024,320.667 352.541,320.874 356.166,318.805C356.281,318.74 356.395,318.671 356.505,318.601C356.823,318.732 357.138,318.872 357.444,319.02L357.545,319.068L357.645,319.113C362.9,321.406 367.125,322.075 372.727,320.477C374.205,320.054 375.531,319.455 376.536,318.435C379.771,318.142 382.922,317.23 385.711,315.5C387.421,314.438 389.22,312.884 390.317,311.191L391.558,309.282L391.366,307.027C391.207,305.169 391.509,302.6 391.995,300.801C392.015,300.729 392.035,300.652 392.058,300.571C393.344,299.819 394.355,298.763 395.119,297.518C401.332,298.932 407.722,298.734 413.353,295.146C423.851,288.457 427.275,273.46 428.177,261.848C428.463,258.165 428.531,254.466 428.418,250.774C428.263,245.74 427.773,240.71 426.934,235.745C426.362,232.371 425.631,229.01 424.671,225.721C426.467,223.909 428.1,221.895 429.463,219.775C432.733,214.691 434.487,208.696 433.67,202.645C432.941,197.251 430.754,191.786 426.442,188.269C424.985,187.079 423.326,186.159 421.526,185.604C419.697,185.041 417.777,184.874 415.882,185.129C412.262,185.617 409.147,187.567 406.858,190.372C405.811,191.655 404.823,193.001 403.916,194.398C403.376,194.015 402.828,193.646 402.269,193.291C394.48,188.364 385.886,187.167 376.856,188.295C374.143,188.636 371.435,189.025 368.739,189.49C366.773,189.828 364.816,190.211 362.86,190.6C360.594,191.05 358.322,191.48 356.037,191.821C355.011,191.204 353.944,190.656 352.84,190.194C348.713,188.469 344.172,187.559 339.702,188.121C335.615,188.635 331.807,190.375 328.984,193.416C328.509,193.929 328.068,194.471 327.665,195.04C326.796,194.978 325.928,194.893 325.062,194.802C322.568,194.541 320.084,194.193 317.607,193.804C317.26,193.75 316.914,193.695 316.568,193.638C313.268,193.102 309.97,192.513 306.698,191.809C306.581,188.825 306.074,185.674 305.558,182.958C305.438,182.326 305.269,181.703 305.049,181.097C304.528,179.656 303.79,178.412 302.886,177.351C304.18,176.918 305.45,176.384 306.69,175.743C313.981,171.977 318.688,165.322 321.369,157.712C326.11,144.25 323.255,129.76 316.174,117.69C313.895,113.803 311.021,110.46 306.765,108.692L297.774,104.957L299.412,114.553C299.766,116.618 298.698,118.64 298.239,120.843C297.705,123.408 248.605,119.82 247.952,117.813C247.825,117.228 247.708,116.64 247.598,116.051C246.98,112.758 246.604,109.412 246.499,106.063L245.926,87.77L235.013,102.459C234.078,103.716 233.177,104.999 232.29,106.292C230.377,109.074 228.544,111.917 226.857,114.843C225.767,116.734 224.722,118.669 223.823,120.665C220.498,121.746 217.256,123.141 214.23,124.886C213.186,125.489 212.138,126.135 211.147,126.843C209.102,126.906 207.019,127.067 204.987,127.406C194.537,112.762 180.393,102.078 161.755,100.923C160.691,100.858 159.594,100.951 158.541,101.096C155.251,101.551 151.851,102.954 151.497,106.809C151.276,109.213 152.605,111.341 154.68,112.474C163.388,117.23 170.411,124.463 175.984,132.591C176.505,134.642 176.889,136.725 177.158,138.822C174.677,140.2 172.304,141.888 170.22,143.725C164.496,148.776 160.651,155.244 159.267,162.779C158.873,164.923 158.431,167.059 157.989,169.194C154.945,183.909 152.109,198.816 163.546,210.927L165.783,213.294C166.486,215.89 167.279,218.461 168.163,221.002C169.922,226.056 172.077,230.949 174.013,235.935C175.971,240.984 177.461,246.003 178.228,251.376C179.356,259.282 179.092,267.468 178.392,275.403C177.532,283.119 175.877,290.723 174.215,298.298L170.112,316.993L183.339,303.159C184.697,301.739 186.039,300.302 187.333,298.826C187.278,299.261 187.22,299.695 187.16,300.13C186.327,306.156 185.068,312.177 183.124,317.947C180.918,324.499 176.786,333.455 170.526,337.006L154.87,345.894L172.171,346.992C171.619,348.287 171.127,349.61 170.663,350.938C169.208,355.1 168.087,359.387 167.303,363.727C164.958,376.708 165.725,390.252 170.91,402.486C171.356,403.54 171.921,404.524 172.47,405.527C172.589,405.747 172.708,405.965 172.829,406.183C172.944,406.394 173.051,406.609 173.156,406.826C173.147,407.06 173.137,407.295 173.125,407.531C172.944,411.249 173.059,414.959 173.488,418.658C173.941,422.572 174.721,426.435 175.532,430.289C176.324,434.059 177.123,437.251 179.037,440.653C180.279,442.863 182.219,444.5 184.772,444.918C189.002,445.607 192.341,442.677 195.13,439.936C200.427,441.788 206.972,441.047 211.759,438.549C213.393,437.696 215.014,436.811 216.68,436.026C218.257,435.283 219.881,434.668 221.539,434.136C225.922,432.727 230.178,431.063 234.091,428.634C248,420 271.288,401.242 275,400.384C277.166,399.883 288.489,404.53 300.619,408.973C312.703,413.4 324.57,416.45 330,414C334.198,412.105 340,409 340,393C340,391.034 348.811,399.023 352,395.743ZM292.876,327.858C292.464,328.051 292.056,328.269 291.651,328.512C289.512,329.797 287.571,331.4 285.808,333.169C283.618,332.625 281.464,331.88 279.388,331.024C278.26,330.559 277.139,330.061 276.042,329.519C273.671,324.758 268.24,319.325 264.102,316.794L263.73,316.568L263.329,316.404C261.51,315.66 259.756,315.152 257.919,314.885C257.053,311.386 256.673,307.719 256.528,304.153C256.273,297.894 256.752,291.609 257.423,285.391C258.006,279.961 260.34,268.229 265.589,264.433C268.087,265.809 270.564,267.228 272.989,268.733C277.064,271.264 280.221,275.584 280.755,280.41C275.448,292.402 273.889,304.757 281.082,316.496C284.054,321.348 288.024,325.286 292.876,327.858Z" style="fill:rgb(210,140,4);fill-opacity:0.45;"/>
                                    <path d="M183.157,345.604C181.99,346.689 179.981,345.893 178.388,345.97L176.895,346.042L176.268,347.39C175.541,348.941 174.913,350.612 174.349,352.226C172.964,356.187 171.893,360.292 171.146,364.42C168.928,376.698 169.595,389.378 174.504,400.961C174.883,401.856 175.43,402.801 175.897,403.658C176.016,403.875 176.134,404.092 176.253,404.309C176.558,404.866 176.817,405.436 177.091,406.003C177.076,406.576 177.053,407.149 177.025,407.722C176.854,411.243 176.96,414.704 177.368,418.208C177.807,422 178.566,425.75 179.352,429.484C180.07,432.896 180.716,435.674 182.44,438.739C183.09,439.897 184.044,440.842 185.401,441.063C188.092,441.504 190.857,438.668 192.603,436.943C193.168,436.387 193.729,435.815 194.309,435.264C198.772,437.973 205.54,437.39 209.953,435.087C211.63,434.211 213.304,433.301 215.017,432.494C216.757,431.674 218.513,431.007 220.345,430.418C224.505,429.082 228.359,427.415 232.153,425.245C236.015,423.034 239.68,420.437 243.348,417.92C253.653,410.851 263.92,403.729 274.267,396.72C277.075,397.805 279.945,398.854 282.815,399.733C287.462,401.157 292.17,402.396 296.802,403.862C301.643,405.394 306.161,407.211 310.701,409.493C318.175,413.25 328.494,414.905 334.219,407.223C337.22,403.196 337.269,394.216 337.165,388.361C338.76,388.85 340.333,389.402 341.865,390.073C342.851,390.505 343.815,390.972 344.79,391.426C345.969,391.974 347.143,392.462 348.371,392.895L349.132,393.161L349.765,392.66C353.783,389.476 355.936,381.993 356.596,377.124C357.381,371.334 357.037,363.009 351.81,359.238C350.826,358.527 349.74,357.983 348.614,357.542C348.748,352.562 347.386,347.422 344.196,343.532C341.758,340.559 338.514,338.642 334.758,337.846C326.371,336.066 318.011,334.171 309.654,332.261C308.081,331.9 306.528,331.465 304.954,331.106C301.174,330.244 297.145,329.768 293.662,331.859C291.211,333.332 289.042,335.316 287.137,337.453C283.983,336.867 280.855,335.851 277.9,334.634C276.262,333.959 274.597,333.198 273.024,332.355C271.474,328.102 265.775,322.396 262.064,320.125L261.962,320.064L261.854,320.019C259.459,319.042 257.37,318.583 254.912,318.569C253.427,314.017 252.819,309.063 252.626,304.312C252.364,297.864 252.85,291.381 253.541,284.972C254.362,277.35 257.474,263.216 265.606,259.994C268.795,261.722 271.968,263.503 275.048,265.416C280.474,268.785 284.439,274.642 284.723,281.11C279.659,292.136 277.732,303.553 284.411,314.456C288.113,320.498 293.521,324.931 300.486,326.574C307.401,328.207 314.609,326.789 320.872,323.615C327.198,320.409 332.573,315.455 336.618,309.644C336.993,310.997 338.153,312.146 339.232,312.957C340.952,314.249 343.127,315.221 345.191,315.807C348.02,316.608 351.577,316.928 354.231,315.414C354.812,315.081 355.323,314.655 355.77,314.165C356.916,314.566 358.074,314.982 359.151,315.508L359.179,315.521L359.207,315.535C363.63,317.467 366.923,318.073 371.654,316.723C372.652,316.438 373.737,316.069 374.189,315.04C374.248,314.905 374.291,314.771 374.321,314.639C377.583,314.61 380.854,313.917 383.652,312.182C384.845,311.441 386.277,310.264 387.043,309.067L387.553,308.279L387.475,307.358C387.283,305.096 387.629,301.988 388.226,299.781C388.342,299.354 388.708,298.108 389.02,297.654C391.263,297.002 392.343,294.974 392.8,292.831C398.888,294.788 405.581,295.469 411.256,291.853C420.546,285.933 423.495,271.72 424.284,261.546C424.56,258.004 424.625,254.442 424.516,250.895C424.365,246.045 423.894,241.18 423.083,236.396C422.408,232.412 421.491,228.4 420.22,224.553C422.484,222.561 424.569,220.166 426.181,217.662C428.959,213.344 430.498,208.324 429.801,203.168C429.209,198.794 427.487,194.161 423.974,191.294C422.905,190.423 421.694,189.743 420.376,189.335C419.087,188.938 417.74,188.818 416.403,188.999C413.773,189.353 411.544,190.807 409.885,192.841C408.032,195.111 406.334,197.654 405.035,200.328C403.527,198.945 401.912,197.687 400.18,196.59C393.169,192.153 385.49,191.152 377.34,192.171C374.686,192.502 372.039,192.885 369.401,193.339C367.469,193.671 365.547,194.047 363.621,194.429C360.792,194.992 358.009,195.511 355.151,195.889C353.95,195.072 352.675,194.356 351.335,193.797C347.848,192.34 343.972,191.52 340.189,191.995C337.017,192.395 334.041,193.707 331.846,196.072C331.021,196.96 330.343,197.962 329.817,199.049C328.099,199.018 326.35,198.863 324.657,198.685C322.098,198.417 319.543,198.062 317.001,197.661C316.648,197.606 316.295,197.55 315.941,197.493C311.559,196.78 307.077,195.955 302.74,194.915C303.059,191.488 302.294,186.692 301.723,183.687C301.641,183.258 301.525,182.835 301.377,182.424C299.761,177.951 295.05,176.328 290.658,176.328C289.93,176.328 289.2,176.316 288.47,176.306C288.159,175.668 287.828,175.041 287.476,174.426C301.424,176.889 312.645,170.731 317.686,156.414C322.051,144.017 319.319,130.768 312.807,119.666C310.975,116.542 308.69,113.72 305.266,112.298L302.814,111.279L303.261,113.896C303.844,117.309 303.572,121.002 301.019,123.587C298.241,126.399 246.295,121.626 244.851,121.598C244.418,120.007 244.062,118.38 243.76,116.772C243.106,113.286 242.707,109.732 242.596,106.185L242.374,99.097L238.146,104.787C237.242,106.004 236.365,107.251 235.507,108.501C233.656,111.196 231.874,113.96 230.241,116.793C228.945,119.039 227.668,121.434 226.708,123.864C223.06,124.918 219.469,126.374 216.182,128.27C214.979,128.962 213.616,129.813 212.494,130.721C209.51,130.756 206.176,130.995 203.254,131.759C193.392,117.085 179.849,105.956 161.513,104.821C160.74,104.773 159.841,104.859 159.074,104.965C157.768,105.146 155.537,105.511 155.384,107.168C155.306,108.018 155.85,108.665 156.551,109.047C166.014,114.216 173.604,122.075 179.592,130.953C180.483,134.272 181.033,137.667 181.326,141.088C178.28,142.472 175.256,144.491 172.805,146.653C167.74,151.122 164.334,156.806 163.107,163.484C162.709,165.658 162.261,167.821 161.813,169.985C159.065,183.269 156.051,197.304 166.386,208.246L169.3,211.333C170.039,214.148 170.883,216.939 171.851,219.718C173.601,224.748 175.73,229.569 177.652,234.522C179.748,239.921 181.272,245.073 182.093,250.823C183.263,259.021 183.005,267.565 182.277,275.791C181.4,283.676 179.727,291.397 178.028,299.134L176.909,304.234L180.517,300.46C183.375,297.471 186.167,294.404 188.572,291.031C189.996,289.035 191.233,286.99 192.328,284.868C192.164,290.154 191.75,295.438 191.028,300.666C190.163,306.919 188.843,313.206 186.824,319.195C184.277,326.755 179.699,336.29 172.454,340.403L168.183,342.827L173.083,343.138C175.973,343.321 179.324,341.945 181.841,340.636C184.446,339.282 186.97,337.594 189.315,335.762C187.87,339.437 185.898,343.055 183.157,345.604Z"/>
                                    <path d="M251.058,355.239C251.264,355.239 251.464,355.267 251.656,355.319C251.839,352.599 253.555,344.027 255.047,343.236C258.894,341.199 258.427,342.601 260.196,338.084C261.118,335.736 261.588,333.799 261.577,331.973L260.071,330.954C247.741,322.696 248.049,300.078 248.859,286.898C249.471,276.939 252.066,261.953 261.454,256.138C257.34,253.976 253.221,251.872 249.472,249.891C245.95,248.032 242.436,246.169 238.932,244.274C234.161,242.791 231.67,238.832 230.445,234.167C229.658,231.173 229.135,228.409 228.224,225.347C227.438,222.709 227.704,223.948 227.398,222.343C232.035,228.266 230.321,238.651 238.751,241.959C242.817,243.555 246.718,245.647 250.656,247.552C259.107,251.644 269.554,256.438 277.544,261.112C282.113,263.787 285.466,267.727 287.365,272.406C287.449,267.983 287.019,263.248 286.587,258.549C288.842,264.012 289.181,270.466 288.554,276.687C293.639,267.224 297.094,260.696 296.662,249.419C297.481,251.835 297.584,251.581 297.677,254.238C298.271,271.193 283.118,283.662 284.938,300.757C286.291,313.458 294.773,322.153 306.701,322.213C319.393,322.277 329.889,314.1 335.035,305.545C334.777,305.373 334.516,305.195 334.252,305.01C332.927,306.48 327.952,311.591 320.203,314.854C318.084,315.746 315.751,316.268 313.404,316.329C310.492,316.404 307.556,315.77 304.982,314.256C302.404,312.74 300.196,310.348 298.75,306.911C298.283,305.804 297.896,304.587 297.602,303.257C297.48,307.04 298.004,310.622 299.582,313.528L300.755,315.377L299.221,313.756C296.414,309.937 296.157,303.887 296.959,297.824L296.956,297.706L296.975,297.705C297.741,292.002 299.435,286.298 300.813,282.436C302.912,276.562 303.77,274.038 304.935,267.673C306.173,260.898 308.677,249.042 308.764,242.174C307.303,243.959 305.965,246.444 304.139,249.97C304.959,241.994 311.734,234.138 319.724,237.535C316.438,237.907 314.135,238.401 312.319,239.291C315.275,252.973 324.687,271.186 335.995,279.537C356.907,294.981 379.661,304.02 393.685,274.926C394.508,273.22 395.239,271.521 396.069,269.804C395.533,271.853 395.673,271.534 394.944,273.489C392.906,278.966 390.466,283.269 387.713,286.568C388.39,286.87 389.119,287.189 389.891,287.511C395.457,289.834 403.209,292.253 409.098,288.502C415.924,284.153 419.351,273.365 420.291,261.245C421.449,246.332 418.815,229.533 414.087,220.007C409.216,210.195 403.978,203.713 398.035,199.953C392.158,196.234 385.524,195.157 377.804,196.123C371.563,196.903 367.797,197.653 364.365,198.335C362.109,198.784 359.995,199.205 357.425,199.587C364.175,205.778 369.312,215.907 370.645,223.759C366.241,216.141 364.599,210.214 357.917,203.429C353.025,198.461 344.42,194.464 337.689,197.74C329.62,201.666 333.846,213.273 338.277,218.561C344.12,225.531 350.465,227.397 358.493,229.95L360.099,230.529C349.516,230.865 336.813,223.743 332.174,214.095C330.18,209.95 329.589,206.182 330.082,203.027C326.533,202.983 321.484,202.392 316.366,201.587C308.299,200.32 300.008,198.517 297.186,197.515L297.2,197.473C291.693,195.645 285.449,192.795 280.312,189.088C279.733,188.322 279.177,187.514 278.68,186.699C276.042,185.363 272.119,185.703 269.47,186.875C267.369,187.878 267.371,190.08 267.405,190.617C268.575,193.068 268.573,195.8 268.166,198.517C267.443,203.34 264.227,211.001 253.417,213.422C236.823,217.14 230.017,209.997 225.358,200.776C222.801,195.716 223.717,190.854 225.337,188.725C228.576,184.471 244.546,182.525 250.687,181.686C252.584,181.427 254.62,181.171 256.786,180.921C259.819,180.571 273.217,178.939 279.057,178.327C280.583,177.956 282.674,177.816 284.735,177.773C283.454,175.211 281.848,172.97 280.139,171.041C280.057,170.949 279.976,170.858 279.894,170.768C279.541,170.632 279.188,170.492 278.834,170.346C266.061,165.079 251.686,158.287 238.097,155.779C228.806,154.064 223.042,154.51 215.274,159.366C215.327,159.508 215.381,159.651 215.431,159.793L216.771,163.625C218.415,168.555 219.619,173.155 219.638,175.903C218.399,173.418 216.57,167.414 215.302,163.946C215.273,163.954 215.245,163.961 215.216,163.968L214.73,162.455C206.427,141.315 191.163,115.626 167.3,110.996C193.673,130.805 200.508,164.569 199.805,182.171C198.636,171.301 193.761,151.157 183.06,133.674C187.035,148.316 183.781,168.597 182.999,181.806C182.241,194.593 181.667,204.005 196.431,207.981C197.923,208.384 200.155,209.026 202.369,210.028L202.517,209.978L202.562,210.117C206.499,211.94 210.309,214.917 209.707,219.727C208.026,217.268 206.084,215.674 203.998,214.533C208.78,229.271 213.762,244.989 217.406,259.735C221.192,275.064 228.715,318.894 221.042,333.081C222.693,337.514 228.892,341.267 232.527,342.027C238.266,343.227 241.676,342.996 245.392,348.443C247.187,351.07 248.475,352.891 250.31,355.364C250.545,355.283 250.795,355.239 251.058,355.239ZM230.203,124.476C232.452,119.171 236.863,112.586 239.267,109.165C239.743,115.704 241.026,120.866 241.648,123.074C237.354,123.193 233.538,123.725 230.203,124.476ZM417.551,221.591C417.162,220.643 416.76,219.742 416.34,218.896C413.522,213.222 410.568,208.602 407.413,204.926C407.853,203.539 409.266,199.859 412.944,195.351C414.103,193.927 415.491,193.131 416.911,192.939C417.662,192.837 418.431,192.904 419.184,193.135C419.957,193.374 420.721,193.788 421.44,194.376C423.531,196.081 425.229,199.203 425.837,203.699C426.996,212.279 420.423,219.073 417.551,221.591ZM272.153,393.53C266.348,391.181 260.722,388.736 255.623,385.73C246.371,395.446 228.75,395.198 218.219,396.967L218.175,397.072L218.017,397.002C217.836,397.033 217.659,397.064 217.485,397.097C210.89,398.313 208.613,399.973 203.2,403.647C207.047,399.836 210.43,397.84 215.283,396.522C215.027,395.087 213.819,389.961 209.009,385C200.164,388.006 194.209,400.483 190.775,408.152C189.362,411.309 188.037,414.62 186.986,418.017C188.967,421.507 193.434,429.637 195.647,431.319C199.308,434.101 204.883,433.84 208.734,431.735C212.868,429.476 214.038,428.612 218.578,427.07C227.753,423.955 233.578,420.843 241.487,415.264C251.745,408.028 261.821,400.705 272.153,393.53ZM273.676,371.311C276.453,371.783 277.267,371.417 280.313,371.69C279.476,369.41 276.822,367.638 275.326,366.789C275.201,368.115 274.394,370.736 273.676,371.311ZM273.463,392.627L273.461,392.624L273.458,392.625C263.533,388.913 251.6,383.529 246.647,378.775C247.828,380.487 251,382.84 253.917,384.689C252.938,386.327 250.612,387.18 248.842,388.328C245.542,384.599 243.442,383.016 242.522,377.118C241.693,371.808 243.063,369.156 244.601,364.45C242.246,367.565 240.936,371.091 240.847,375.046C240.736,379.876 244.081,386.294 248.481,388.557C240.584,393.428 226.715,394.264 218.716,395.747C220.355,391.65 222.552,385.29 221.633,381.442C221.3,380.048 219.981,376.718 218.376,374.125C222.299,373.758 227.57,370.323 230.117,367.712C234.667,363.049 235.881,359.266 243.382,360.613C245.939,361.071 243.784,362.533 246.199,363.06C254.534,364.885 259.653,370.772 270.171,372.449C288.364,375.352 308.377,371.85 323.042,385.198C322.148,383.604 320.498,381.992 319.552,381.322C324.203,383.529 328.666,384.59 333.011,385.706C333.148,390.494 333.656,401.438 331.114,404.941C326.677,411.056 317.97,409.1 312.302,406.352C301.591,401.161 295.38,399.429 284.236,396.246C281.441,395.448 277.628,394.185 273.463,392.627ZM269.003,186.038C267.349,186.72 266.676,187.96 266.413,188.987C263.811,185.546 259.028,183.181 253.112,182.765C254.157,182.63 255.241,182.494 256.359,182.362C259.209,182.025 269.892,180.725 276.73,179.966C276.254,181.278 276.823,183.245 277.888,185.297C276.031,184.684 272.889,184.239 268.983,185.993L269.003,186.038Z" style="fill:rgb(112,64,21);"/>
                                    <g transform="matrix(1.11887,0,0,1.35149,-39.597,-78.4762)">
                                        <path d="M385.744,212.71L385.744,230L395.575,246.231L399.52,229L385.744,212.71Z" style="fill:rgb(255,219,238);fill-opacity:0.72;"/>
                                        <path d="M385.744,212.71L399.52,229L395.575,246.231L385.744,230L385.744,212.71ZM388.253,219.298L388.253,229.508L394.492,239.809C394.492,239.809 396.858,229.474 396.858,229.474L388.253,219.298Z"/>
                                    </g>
                                    <path d="M311.925,200.841C305.433,199.684 299.489,198.333 297.186,197.515L297.2,197.473C291.693,195.645 285.449,192.795 280.312,189.088C279.733,188.322 279.177,187.514 278.68,186.699C276.042,185.363 272.119,185.703 269.47,186.875C267.369,187.878 267.371,190.08 267.405,190.617C268.575,193.068 268.573,195.8 268.166,198.517C267.443,203.34 264.227,211.001 253.417,213.422C236.823,217.14 230.017,209.997 225.358,200.776C222.801,195.716 223.717,190.854 225.337,188.725C228.576,184.471 244.546,182.525 250.687,181.686C252.584,181.427 254.62,181.171 256.786,180.921C259.819,180.571 273.217,178.939 279.057,178.327C280.583,177.956 282.674,177.816 284.735,177.773C283.454,175.211 281.848,172.97 280.139,171.041C280.057,170.949 279.976,170.858 279.894,170.768C279.541,170.632 279.188,170.492 278.834,170.346C266.061,165.079 251.686,158.287 238.097,155.779C228.806,154.064 223.042,154.51 215.274,159.366C215.327,159.508 215.381,159.651 215.431,159.793L216.771,163.625C218.415,168.555 219.619,173.155 219.638,175.903C218.399,173.418 216.57,167.414 215.302,163.946C215.273,163.954 215.245,163.961 215.216,163.968L214.73,162.455C206.427,141.315 191.163,115.626 167.3,110.996C193.673,130.805 200.508,164.569 199.805,182.171C198.636,171.301 193.761,151.157 183.06,133.674C187.035,148.316 183.781,168.597 182.999,181.806C182.241,194.593 181.667,204.005 196.431,207.981C197.923,208.384 200.155,209.026 202.369,210.028L202.517,209.978L202.562,210.117C206.499,211.94 210.309,214.917 209.707,219.727C208.026,217.268 206.084,215.674 203.998,214.533C208.78,229.271 213.762,244.989 217.406,259.735C221.192,275.064 228.715,318.894 221.042,333.081C222.693,337.514 228.892,341.267 232.527,342.027C238.266,343.227 241.676,342.996 245.392,348.443C247.187,351.07 248.475,352.891 250.31,355.364C250.545,355.283 250.795,355.239 251.058,355.239C251.264,355.239 251.464,355.267 251.656,355.319C251.839,352.599 253.555,344.027 255.047,343.236C258.894,341.199 258.427,342.601 260.196,338.084C261.118,335.736 261.588,333.799 261.577,331.973L260.071,330.954C247.741,322.696 248.049,300.078 248.859,286.898C249.471,276.939 252.066,261.953 261.454,256.138C257.34,253.976 253.221,251.872 249.472,249.891C245.95,248.032 242.436,246.169 238.932,244.274C234.161,242.791 231.67,238.832 230.445,234.167C229.658,231.173 229.135,228.409 228.224,225.347C227.438,222.709 227.704,223.948 227.398,222.343C232.035,228.266 230.321,238.651 238.751,241.959C242.817,243.555 246.718,245.647 250.656,247.552C259.107,251.644 269.554,256.438 277.544,261.112C277.795,261.259 278.042,261.41 278.286,261.564L311.925,200.841Z" style="fill:rgb(182,87,0);"/>
                                    <path d="M240.054,115.787C240.603,119.124 241.256,121.684 241.648,123.074C237.354,123.193 233.538,123.725 230.203,124.476C231.193,122.141 232.602,119.557 234.075,117.104L240.054,115.787Z" style="fill:rgb(182,87,0);"/>
                                    <g transform="matrix(1.06551,0,0,1.29371,-8.50893,-32.0624)">
                                        <path d="M181.336,116.608C176.454,113.679 171.018,111.542 165,110.58C169.295,113.237 173.037,116.219 176.287,119.403L181.336,116.608Z" style="fill:rgb(147,70,0);fill-opacity:0.46;"/>
                                    </g>
                                    <g transform="matrix(0.564457,0,0,0.760795,137.653,27.9438)">
                                        <path d="M170.823,117.194L181.416,115.462C180.843,112.879 180.334,109.943 180.022,106.758C177.638,109.275 174.14,113.095 170.823,117.194Z" style="fill:rgb(147,70,0);fill-opacity:0.46;"/>
                                    </g>
                                    <path d="M273.463,392.627L273.461,392.624L273.458,392.625C263.533,388.913 251.6,383.529 246.647,378.775C247.828,380.487 251,382.84 253.917,384.689C252.938,386.327 250.612,387.18 248.842,388.328C245.542,384.599 243.442,383.016 242.522,377.118C241.693,371.808 243.063,369.156 244.601,364.45C242.246,367.565 240.936,371.091 240.847,375.046C240.736,379.876 244.081,386.294 248.481,388.557C240.584,393.428 226.715,394.264 218.716,395.747C220.355,391.65 222.552,385.29 221.633,381.442C221.3,380.048 219.981,376.718 218.376,374.125C222.299,373.758 227.57,370.323 230.117,367.712C234.667,363.049 235.881,359.266 243.382,360.613C245.939,361.071 243.784,362.533 246.199,363.06C254.534,364.885 259.653,370.772 270.171,372.449C288.364,375.352 308.377,371.85 323.042,385.198C322.148,383.604 320.498,381.992 319.552,381.322C324.203,383.529 328.666,384.59 333.011,385.706C333.148,390.494 333.656,401.438 331.114,404.941C326.677,411.056 317.97,409.1 312.302,406.352C301.591,401.161 295.38,399.429 284.236,396.246C281.441,395.448 277.628,394.185 273.463,392.627Z" style="fill:rgb(160,86,19);"/>
                                    <path d="M269.003,186.038C267.349,186.72 266.676,187.96 266.413,188.987C263.811,185.546 259.028,183.181 253.112,182.765C254.157,182.63 255.241,182.494 256.359,182.362C259.209,182.025 269.892,180.725 276.73,179.966C276.254,181.278 276.823,183.245 277.888,185.297C276.031,184.684 272.889,184.239 268.983,185.993L269.003,186.038Z" style="fill:rgb(112,64,21);"/>
                                    <path d="M417.551,221.591C417.162,220.643 416.76,219.742 416.34,218.896C413.522,213.222 410.568,208.602 407.413,204.926C407.853,203.539 409.266,199.859 412.944,195.351C414.103,193.927 415.491,193.131 416.911,192.939C417.662,192.837 418.431,192.904 419.184,193.135C419.957,193.374 420.721,193.788 421.44,194.376C423.531,196.081 425.229,199.203 425.837,203.699C426.996,212.279 420.423,219.073 417.551,221.591Z" style="fill:rgb(147,70,0);fill-opacity:0.26;"/>
                                    <path d="M311.925,200.841L278.286,261.564C282.477,264.222 285.57,267.984 287.365,272.406C287.449,267.983 287.019,263.248 286.587,258.549C288.842,264.012 289.181,270.466 288.554,276.687C293.639,267.224 297.094,260.696 296.662,249.419C297.481,251.835 297.584,251.581 297.677,254.238C298.271,271.193 283.118,283.662 284.938,300.757C286.291,313.458 294.773,322.153 306.701,322.213C319.393,322.277 329.889,314.1 335.035,305.545C334.777,305.373 334.516,305.195 334.252,305.01C332.927,306.48 327.952,311.591 320.203,314.854C318.084,315.746 315.751,316.268 313.404,316.329C310.492,316.404 307.556,315.77 304.982,314.256C302.404,312.74 300.196,310.348 298.75,306.911C298.283,305.804 297.896,304.587 297.602,303.257C297.48,307.04 298.004,310.622 299.582,313.528L300.755,315.377L299.221,313.756C296.414,309.937 296.157,303.887 296.959,297.824L296.956,297.706L296.975,297.705C297.741,292.002 299.435,286.298 300.813,282.436C302.912,276.562 303.77,274.038 304.935,267.673C306.173,260.898 308.677,249.042 308.764,242.174C307.303,243.959 305.965,246.444 304.139,249.97C304.959,241.994 311.734,234.138 319.724,237.535C316.438,237.907 314.135,238.401 312.319,239.291C315.275,252.973 324.687,271.186 335.995,279.537C356.907,294.981 379.661,304.02 393.685,274.926C394.508,273.22 395.239,271.521 396.069,269.804C395.533,271.853 395.673,271.534 394.944,273.489C392.906,278.966 390.466,283.269 387.713,286.568C388.39,286.87 389.119,287.189 389.891,287.511C395.457,289.834 403.209,292.253 409.098,288.502C415.924,284.153 419.351,273.365 420.291,261.245C421.449,246.332 418.815,229.533 414.087,220.007C409.216,210.195 403.978,203.713 398.035,199.953C392.158,196.234 385.524,195.157 377.804,196.123C371.563,196.903 367.797,197.653 364.365,198.335C362.109,198.784 359.995,199.205 357.425,199.587C364.175,205.778 369.312,215.907 370.645,223.759C366.241,216.141 364.599,210.214 357.917,203.429C353.025,198.461 344.42,194.464 337.689,197.74C329.62,201.666 333.846,213.273 338.277,218.561C344.12,225.531 350.465,227.397 358.493,229.95L360.099,230.529C349.516,230.865 336.813,223.743 332.174,214.095C330.18,209.95 329.589,206.182 330.082,203.027C326.533,202.983 321.484,202.392 316.366,201.587C314.882,201.354 313.39,201.103 311.925,200.841Z" style="fill:rgb(147,70,0);"/>
                                    <path d="M269.038,186.038C267.385,186.72 266.713,187.96 266.448,188.987C263.847,185.546 259.062,183.181 253.146,182.765C254.192,182.63 255.275,182.494 256.396,182.362C259.246,182.025 269.928,180.725 276.765,179.966C276.291,181.278 276.859,183.245 277.924,185.297C276.065,184.684 272.923,184.239 269.018,185.993L269.038,186.038Z"/>
                                    <path d="M317.718,260.115C322.038,268.675 327.826,276.602 334.653,281.481C352.287,294.084 372.402,302.103 385.97,288.522C386.917,288.947 387.98,289.422 389.133,289.901C389.158,291.159 389.054,293.568 387.873,293.846C387.579,293.915 387.304,294.034 387.044,294.195L387.044,294.193C383.124,293.75 378.384,296.639 374.605,297.802C373.248,298.22 373.646,297.868 373.191,298.323C368.094,296.194 363.476,295.422 358.571,298.084L358.906,298.523C355.083,294.833 351.201,293.446 345.937,293.525L346.02,293.943C343.357,289.841 339.86,286.769 334.946,286.784C333.489,282.727 331.073,278.565 326.555,278.026C324.928,268.316 317.272,270.623 317.718,260.115ZM333.264,304.274C332.942,304.628 332.439,305.157 331.762,305.803C332.253,305.134 332.625,304.485 332.881,303.988C333.009,304.085 333.136,304.18 333.264,304.274ZM328.302,308.737C326.998,309.725 325.47,310.76 323.735,311.74C324.737,310.763 325.786,309.636 326.168,309.224C326.944,309.195 327.655,309.016 328.302,308.737ZM320.776,313.247C320.44,313.402 320.1,313.551 319.753,313.698C317.775,314.53 315.599,315.017 313.41,315.073C310.719,315.143 308.013,314.563 305.652,313.174C303.297,311.789 301.275,309.592 299.942,306.423C299.497,305.366 299.128,304.202 298.849,302.922C300.028,305.776 302.854,307.611 303.572,308.042C303.85,308.775 305.037,311.491 307.793,312.724C310.532,313.95 314.309,312.787 315.32,312.435C316.364,313.129 317.795,313.419 319.175,313.404C319.722,313.399 320.266,313.345 320.776,313.247Z" style="fill:rgb(216,7,58);"/>
                                    <path d="M328.862,300.172C327.531,298.405 323.997,300.936 323.127,302.303C321.565,301.657 318.967,300.681 317.479,301.702C314.753,299.859 314.36,301.775 311.147,299.638L308.676,296.687C308.257,296.208 307.9,295.745 307.6,295.298C307.761,294.417 308.355,291.309 309.15,288.591C310.02,285.628 309.861,281.06 309.815,280.074C310.88,278.187 311.15,275.097 311.208,274.206C313.325,271.917 312.545,266.891 312.352,265.825C313.717,262.677 313.877,258.541 313.895,257.604C314.515,256.638 314.858,255.441 315.044,254.303C315.52,255.441 316.021,256.578 316.549,257.71C316.693,261.221 317.382,265.953 317.607,267.421C316.919,268.08 315.99,269.804 316.572,274.23C317.314,279.863 320.281,283.819 320.827,284.505C320.813,284.919 321.011,285.398 321.359,286.37C322.731,290.201 323.893,294.791 327.591,296.901C327.531,297.958 328.033,299.072 328.862,300.172Z" style="fill:rgb(216,7,58);"/>
                                    <path d="M187.419,346.536C199.831,344.651 207.923,340.684 209.538,339.842C209.457,336.472 211.59,331.061 213.224,328.462C214.721,326.081 219.384,323.517 222.511,323.246C223.914,304.266 218.51,275.615 214.444,260.513C210.219,244.811 204.509,228.091 199.181,212.568C193.801,210.904 188.068,210.095 183.56,204.472C177.963,197.487 179.711,185.405 180.572,177.093C181.652,166.633 183.354,155.835 183.04,145.233C179.492,146.873 169.707,152.401 167.523,164.291C167.119,166.492 166.664,168.694 166.21,170.884C164.179,180.701 162.2,190.273 165.317,198.336C165.496,196.563 165.953,194.508 166.828,192.145L169.725,184.337C169.857,227.479 192.849,224.964 186.746,276.267C186.269,280.569 185.651,284.508 184.869,288.581C187.982,284.049 192.069,276.604 193.513,267.219L195.519,254.191L196.512,267.331C196.524,267.497 200.664,318.958 181.239,336.925C186.711,334.604 194.303,329.244 201.579,316.898C201.538,320.082 199.008,324.223 195.378,328.208C195.466,328.146 195.553,328.075 195.641,327.99C195.534,328.35 195.419,328.778 195.281,329.294C194.288,333.02 192.18,340.928 187.419,346.536ZM287.231,129.516C285.827,130.665 282.294,139.85 282.294,139.85C282.294,139.85 237.364,128.826 235.099,128.767C241.148,129.657 244.104,132.047 245.049,132.534C254.255,137.28 260.612,141.968 270.375,142.746C278.756,143.415 288.191,140.976 291.77,135.378C289.347,137.571 286.813,138.585 282.294,139.85C285.028,135.422 285.873,132.659 287.231,129.516" style="fill:rgb(143,29,34);"/>
                                    <path d="M287.231,129.516C298.762,131.512 304.201,127.415 306.021,122.81C306.112,132.317 302.297,138.468 295.323,144.486C305.412,139.203 308.596,127.825 307.196,117.192C311.263,123.125 313.988,129.387 315.266,136.697C317.957,152.112 310.328,170.908 292.517,170.785C284.377,170.729 273.737,165.44 265.95,162.458C252.053,157.134 228.204,147.585 215.224,159.129C212.233,151.021 208.421,142.62 203.601,134.963C206.544,133.938 210.345,133.602 214.177,133.51L214.184,133.519L214.194,133.51C218.445,133.408 222.734,133.604 225.931,133.491C223.395,132.863 219.737,132.387 215.904,132.233C219.778,129.616 230.2,123.986 247.143,124.909C246.83,125.162 287.59,129.222 287.231,129.516" style="fill:rgb(143,29,34);"/>
                                    <path d="M385.744,295.527C383.153,295.373 379.985,296.83 374.861,298.592C371.746,299.664 372.288,298.611 368.497,297.932C365.821,297.454 363.085,297.177 360.559,298.39C358.318,299.466 360.281,298.897 357.996,299.406C351.851,293.738 345.395,295.665 344.562,294.4C339.287,286.378 334.4,288.678 333.945,287.568C332.273,283.484 330.941,279.511 326.185,278.853C325.531,278.763 325.697,277.767 325.522,277.046C324.92,274.549 321.626,270.655 318.6,268.49C318.595,268.492 317.369,268.731 318.067,274.036C318.64,278.392 320.628,281.648 321.568,282.983C321.753,282.709 321.976,282.382 322.239,281.979L323.853,279.723C322.648,283.212 323.322,281.5 321.835,284.861L322.026,284.758C323.469,287.868 325.327,293.317 328.393,294.974C329.439,293.463 331.822,290.399 332.669,289.64C331.545,292.085 330.007,294.063 329.004,296.061C327.378,299.305 336.311,304.26 339.313,305.865C341.062,302.631 342.721,299.367 344.082,295.937C344.089,299.671 341.315,305.126 339.57,308.729C340.946,310.685 344.44,312.049 346.558,312.707C355.886,315.604 355.267,308.443 357.54,301.997C357.645,304.458 357.305,308.57 355.861,311.444C356.977,311.763 358.343,312.426 359.659,312.865C364.319,314.422 366.442,314.655 371.076,313.354C370.997,309.959 371.397,303.011 372.417,300.974C372.802,302.312 372.602,307.287 372.664,310.61C379.673,311.083 382.681,308.188 383.488,307.213C383.368,304.951 383.655,301.486 384.394,298.749C384.73,297.507 385.176,296.387 385.744,295.527ZM332.075,303.357C331.355,304.821 329.321,308.221 325.944,308.221L325.722,308.221L325.571,308.385C325.567,308.391 323.931,310.184 322.608,311.428C321.986,312.013 320.613,312.385 319.168,312.401C317.882,312.414 316.568,312.139 315.703,311.475L315.479,311.302L315.216,311.404C315.203,311.409 311,313.06 308.203,311.808C305.418,310.562 304.465,307.555 304.462,307.546L304.4,307.358L304.228,307.263C304.217,307.257 300.4,305.16 299.511,301.75C299.051,299.986 298.895,298.361 298.914,296.719C298.929,295.542 299.036,294.349 299.19,293.087C300.119,289.378 301.326,285.874 302.425,283.022C304.709,277.092 305.646,274.499 306.959,268.058C308.286,261.566 311.206,250.121 310.999,242.215C311.751,245.212 312.735,248.346 313.929,251.501C313.854,253.557 313.579,255.924 312.764,257.034L312.645,257.198L312.644,257.403C312.644,257.416 312.644,262.146 311.124,265.49L311.041,265.673L311.082,265.874C311.981,270.263 312.322,273.68 307.46,273.217C310.628,274.093 310.872,275.695 309.061,278.879C308.403,280.037 307.166,279.391 305.746,279.203C310.098,280.363 309.379,283.343 307.945,288.242C307.398,290.11 306.945,292.161 306.657,293.572C304.91,289.356 307.891,286.66 306.631,284.083C306.551,283.92 306.563,283.954 306.423,283.853C306.439,284.07 306.479,284.253 306.477,284.478C306.457,287.709 305.247,289.46 305.133,291.531C303.258,291.121 301.488,291.92 300.127,293.298C302.054,292.8 303.164,292.129 305.126,291.726C305.094,293.256 305.686,294.986 307.791,297.621C309.635,299.927 311.074,302.455 314.434,302.176C315.761,302.066 316.518,302.666 317.075,302.964C316.744,305.285 316.328,307.592 315.948,309.906C316.866,307.239 317.292,305.66 317.799,303.068C317.884,303.022 317.97,302.948 318.059,302.838C319.002,301.657 321.769,303.191 323.103,303.297C323.744,304.866 323.817,305.577 324.37,307.702C324.167,304.871 324.378,304.857 323.788,303.035C323.793,303.022 323.798,303.011 323.804,302.998C324.247,301.735 327.04,300.908 329.216,300.619C330,301.563 331.004,302.49 332.075,303.357Z" style="fill:white;"/>
                                    <path d="M265.95,162.458C268.047,163.261 270.354,164.233 272.762,165.223C291.968,170.456 311.237,167.213 309.893,144.364C309.893,144.364 304.604,163.004 257.756,151.165C257.756,151.165 283.951,154.313 294.529,148.144C294.529,148.144 270.601,153.81 240.755,145.876C240.755,145.876 227.343,140.46 220.794,139.831C220.794,139.831 235.97,138.698 244.722,140.524C244.722,140.524 221.989,133.634 205.247,137.669C209.297,144.569 212.578,151.956 215.217,159.116C219.695,155.142 225.463,153.673 231.669,153.673L231.682,153.673C240.192,153.67 249.528,156.432 257.486,159.279C260.553,160.376 263.417,161.487 265.95,162.458ZM209.7,313.221C215.682,298.425 211.116,264.737 211.116,264.737C212.458,284.981 199.782,307.871 199.782,307.871C210.771,271.011 194.429,228.216 194.429,228.216C194.745,237.661 191.281,249.939 191.281,249.939C189.069,232.66 184.04,214.993 179.003,204.917C173.965,194.842 176.799,185.712 176.799,175.323C176.799,168.518 180.331,160.496 182.766,155.77C182.277,162.923 181.275,170.084 180.55,177.093C179.69,185.405 177.943,197.487 183.54,204.472C188.045,210.095 193.779,210.904 199.16,212.568C204.488,228.091 210.197,244.811 214.424,260.513C218.488,275.615 223.894,304.266 222.489,323.246C219.363,323.517 214.7,326.081 213.202,328.462C211.569,331.061 209.437,336.472 209.518,339.842C208.363,340.442 203.902,342.64 196.923,344.533C197.826,343.223 198.634,341.358 198.995,338.724C200.036,331.121 203.717,328.019 209.7,313.221ZM283.557,137.69C255.61,137.318 231.224,136.148 233.505,129C233.505,129 235.399,132.986 249.813,134C261.012,134.788 286.215,131.972 286.215,131.972C286.215,131.972 292.55,132.229 295.159,131.268C295.159,131.268 295.285,132.841 293.9,133.535C293.9,133.535 300.215,133.542 303.094,129.253C303.094,129.253 298.938,141.343 283.259,143.797C283.259,143.797 291.334,138.67 292.05,134.896C288.721,137.202 283.557,137.69 283.557,137.69Z" style="fill:rgb(41,2,6);"/>
                                    <path d="M245.329,362.717C245.329,362.717 244.997,363.534 244.584,364.494C242.249,367.597 240.95,371.11 240.861,375.046C240.753,379.876 244.095,386.294 248.495,388.557C240.605,393.424 226.755,394.263 218.754,395.743C220.391,391.646 222.588,385.289 221.668,381.442C221.335,380.048 220.017,376.718 218.412,374.125C222.335,373.758 227.606,370.323 230.154,367.712C234.067,363.702 235.512,360.342 240.612,360.337L240.619,360.337C241.44,360.338 242.359,360.426 243.396,360.613C245.516,360.993 244.397,362.062 245.329,362.717ZM275.913,365.374C276.406,361.758 283.498,348.767 285.6,345.533C288.185,341.557 293.962,333.726 299.195,333.706L299.215,333.706C303.239,333.722 321.925,338.238 327.465,339.313C335.718,340.914 340.341,341.907 344.101,351.092C345.467,354.433 344.895,356.488 342.45,357.296C341.484,357.06 340.529,356.816 339.609,356.534C337.522,355.889 330.971,353.583 329.169,353.432C329.17,353.433 329.172,353.433 329.172,353.435C329.164,353.433 329.157,353.433 329.148,353.432C330.683,354.569 337.175,357.021 339.164,357.769C343.889,359.546 349.581,359.914 351.938,364.638C354.737,370.249 352.52,384.477 348.207,388.425C346.284,388.422 345.601,387.808 343.923,387.113C340.199,385.571 336.568,384.854 332.566,384.045C327.275,382.975 323.2,381.764 318.178,380.378C311.478,376.141 303.336,374.319 295.568,373.172C291.375,372.551 286.641,372.227 281.962,371.83C281.183,368.667 277.652,366.347 275.913,365.374Z" style="fill:rgb(60,29,0);"/>
                                    <path d="M268.291,355.93C271.432,347.67 273.045,343.536 270.069,333.63C265.625,326.791 261.562,322.055 254.626,322.018C255.775,325.033 256.788,326.421 258.838,328.728C259.465,329.433 260.664,330.59 261.577,331.467C261.457,329.305 260.647,327.26 259.096,324.823L260.43,325.933C263.505,329.252 262.978,334.673 261.67,338.621C261.047,340.505 260.634,341.523 260.153,342.161C264.795,344.996 267.122,349.676 268.291,355.93ZM258.332,343.379C269.39,353.624 261.053,356.768 269.025,361.084C272.545,351.354 274.859,345.441 272.551,336.019C275.257,337.367 280.502,339.711 286.238,340.82C281.824,346.534 278.299,353.654 275.707,359.232C275.24,360.236 273.427,363.225 273.343,365.154C273.994,367.039 272.876,369.115 271.345,370.963C262.227,370.98 252.703,362.514 246.471,361.446C246.028,359.907 244.882,359.091 243.12,359.036L243.217,359.042C232.802,358.456 234.074,363.056 227.506,368.875C224.335,371.686 220.647,372.993 217.784,373.204C216.839,371.859 215.829,370.859 214.879,370.69C214.54,370.63 214.207,370.58 213.878,370.538C211.221,364.823 210.22,361.928 205.989,356.924C203.547,354.038 202.101,352.613 198.49,351.15C201.953,353.698 203.578,355.452 205.973,358.903C209.061,363.357 209.914,365.908 211.757,370.39C205.019,370.322 200.31,374.271 196.13,379.801C201.63,374.695 206.477,370.231 214.632,372.066C216.545,372.497 219.568,380.092 219.946,381.853C220.654,385.146 218.313,391.383 216.768,395.033C216.685,394.71 216.582,394.349 216.457,393.953C216.755,391.519 219.365,383.82 216.854,382.94C208.688,380.074 201.052,387.135 196.93,393.366C190.445,403.165 183.099,418.547 183.687,431.538C182.023,426.982 181.345,423.55 180.799,419.056C179.492,408.326 181.949,402.313 177.678,390.895C178.45,395.709 179.075,398.724 179.263,402.593C178.624,401.424 177.904,400.106 177.693,399.611C168.021,376.788 177.489,353.238 179.166,349.405C181.138,349.295 183.035,349.125 184.857,348.907L184.934,349L185.074,348.88C198.763,347.207 207.982,342.876 210.238,341.728C211.479,343.748 214.125,348.069 214.656,349.125C217.295,354.377 218.393,358.654 221.634,364.091C222.989,366.364 223.205,366.671 224.271,368.289L226.163,368.112C226.191,363.671 227.045,357.823 229.044,353.884L230.491,351.524C231.794,350.009 236.137,345.437 238.667,346.634C241.404,347.928 243.383,350.531 245.479,352.606C243.967,349.769 239.897,344.285 235.898,345.815C228.179,348.769 225.259,357.481 224.522,365.212C224.221,364.704 223.869,364.094 223.32,363.121C218.633,354.841 217.013,348.167 211.021,340.335C211.254,335.508 212.461,333.012 215.144,328.823C218.302,326.305 218.77,325.879 222.348,324.979C222.132,327.442 222.075,329.953 220.771,332.09C220.519,331.289 220.646,330.741 220.686,329.938C218.628,333.144 221.952,337.047 224.189,339.084C227.666,342.247 230.196,343.447 234.647,344.247C246.041,346.292 242.751,349.655 250.15,355.433C249.286,355.814 248.678,356.71 248.678,357.757C248.678,359.149 249.75,360.276 251.072,360.276C252.394,360.276 253.465,359.149 253.465,357.757C253.465,356.619 252.747,355.656 251.761,355.346C253.187,351.825 254.157,348.2 255.672,344.539C256.829,343.963 257.676,343.647 258.332,343.379ZM231.549,347.32C231.548,347.319 231.545,347.317 231.544,347.314C231.553,347.317 231.562,347.319 231.57,347.32C229.795,345.874 226.208,344.065 223.934,342.405C222.492,341.354 222.091,340.926 220.791,339.745L220.829,339.797C220.81,339.78 220.79,339.762 220.771,339.745L221.938,341.404C223.811,343.572 228.889,346.823 231.549,347.32Z" style="fill:rgb(143,29,34);"/>
                                    <path d="M214.066,335.221C215.747,329.911 217.585,327.428 222.235,326.347C222.273,325.891 222.308,325.434 222.348,324.979C218.77,325.879 218.302,326.305 215.144,328.823C212.461,333.012 211.254,335.508 211.021,340.335C215.193,345.788 217.246,350.679 219.689,355.941C219.689,355.941 216.821,348.68 214.696,344.194C212.571,339.707 213.268,337.744 214.066,335.221ZM211.757,370.39C209.914,365.908 209.061,363.357 205.973,358.903C204.888,357.34 203.962,356.125 202.95,355.027C202.95,355.025 202.949,355.024 202.947,355.024C209.137,361.844 209.249,370.559 209.249,370.559C210.053,370.439 210.888,370.381 211.757,370.39ZM217.496,377.92C219.621,381.934 219.768,385.993 219.768,385.993C220.078,384.419 220.186,382.968 219.946,381.853C219.568,380.092 216.545,372.497 214.632,372.066C210.828,371.21 207.744,371.726 204.977,373.037L202.331,374.572C212.903,369.73 215.371,373.906 217.496,377.92ZM270.069,333.63C271.887,339.681 271.993,343.578 271.084,347.576L270.375,350.162C271.594,344.183 271.238,338.869 269.601,334.848C267.273,329.125 262.547,325.252 260.312,324.162C258.9,323.474 256.952,323.188 255.062,323.1C254.918,322.763 254.772,322.404 254.626,322.018C261.562,322.055 265.625,326.791 270.069,333.63ZM272.551,336.019C275.257,337.367 280.502,339.711 286.238,340.82C285.933,341.217 285.63,341.621 285.333,342.031C282.702,341.193 279.417,340.158 277,339.432C274.021,338.538 273.307,338.879 273.185,339.253C273.035,338.217 272.826,337.144 272.551,336.019ZM180.895,351.081C180.895,351.081 168.087,374.836 178.072,400.384C177.901,400.054 177.767,399.782 177.693,399.611C168.021,376.788 177.489,353.238 179.166,349.405C181.138,349.295 183.035,349.125 184.857,348.907L184.934,349L185.074,348.88C198.763,347.207 207.982,342.876 210.238,341.728C210.687,342.459 211.321,343.492 211.971,344.561C211.449,344.116 210.075,343.713 206.476,344.863C200.808,346.673 197.266,348.721 190.024,349.586C182.784,350.451 180.895,351.081 180.895,351.081Z" style="fill:rgb(210,140,4);"/>
                                    <path d="M309.661,126.051C313.805,134.544 299.776,141.482 298.702,142.301L298.702,142.3C306.109,136.453 308.419,126.558 307.201,117.23C311.254,123.151 313.971,129.402 315.245,136.697C317.926,152.058 310.361,170.779 292.681,170.786C292.625,170.786 292.572,170.786 292.517,170.785L292.497,170.785C288.803,170.755 284.597,169.652 280.376,168.175C311.186,176.677 319.405,146.025 309.661,126.051Z" style="fill:rgb(76,36,0);"/>
                                    <path d="M223.016,209.886C223.016,209.886 225.22,228.775 229.627,237.906C234.036,247.037 239.389,250.499 241.277,273.167C242.102,283.068 244.175,293.055 246.249,301.164C245.494,295.015 245.532,287.642 247.216,279.166C252.686,251.639 260.094,255.541 260.094,255.541C260.094,255.541 260.354,255.632 260.79,255.78C256.903,253.745 253.029,251.763 249.487,249.891C245.965,248.032 242.451,246.169 238.948,244.274C234.175,242.791 231.686,238.832 230.461,234.167C229.674,231.173 229.15,228.409 228.239,225.347C227.454,222.709 227.72,223.948 227.414,222.343C227.423,222.354 227.432,222.366 227.44,222.379C227.438,222.367 227.437,222.356 227.435,222.343C232.07,228.266 230.357,238.651 238.788,241.959C242.852,243.555 246.755,245.647 250.691,247.552C259.143,251.644 269.591,256.438 277.581,261.112C282.133,263.776 285.479,267.699 287.381,272.356C287.462,267.948 287.032,263.231 286.603,258.549C286.612,258.571 286.621,258.592 286.629,258.614C286.628,258.592 286.625,258.571 286.624,258.549C288.873,263.997 289.214,270.434 288.595,276.64C293.666,267.201 297.106,260.677 296.679,249.419C296.686,249.442 296.692,249.465 296.701,249.487C296.7,249.465 296.698,249.442 296.698,249.419C297.519,251.835 297.62,251.581 297.714,254.238C298.101,265.272 291.817,274.407 287.883,284.153C291.158,277.762 298.743,263.763 299.522,252.074C300.309,240.267 285.984,229.089 285.984,229.089C291.794,266.091 231.682,233.178 223.016,209.886ZM416.258,218.658C413.807,213.753 411.25,209.643 408.549,206.255C409.493,204.644 411.176,202.534 414.11,200.645C419.855,196.946 423.24,206.471 419.304,213.082C418.062,215.167 417.056,217.042 416.258,218.658ZM197.031,416.78C193.881,411.586 204.783,402.597 204.783,402.597C204.295,402.928 203.782,403.278 203.236,403.647C203.25,403.632 203.266,403.618 203.28,403.604C203.258,403.618 203.236,403.632 203.214,403.647C203.576,403.29 203.933,402.948 204.287,402.621C202.909,402.571 199.167,401.587 199.792,392.243C195.838,397.222 192.872,403.551 190.812,408.152C189.396,411.309 188.073,414.62 187.021,418.017C189.002,421.507 193.47,429.637 195.684,431.319C197.538,432.729 199.885,433.358 202.249,433.361L202.258,433.361C204.551,433.359 206.858,432.771 208.75,431.735C212.882,429.476 214.053,428.612 218.593,427.07C227.768,423.955 233.593,420.843 241.502,415.264C251.761,408.028 261.836,400.705 272.167,393.53C266.492,391.233 260.987,388.845 255.978,385.931C255.397,388.854 253.19,393.146 245.673,395.845C233.393,400.252 226.152,399.78 216.077,406.863C206.003,413.947 200.179,421.976 197.031,416.78ZM280.147,386.872C300.926,389.39 313.52,395.057 313.52,395.057C313.52,395.057 330.362,401.511 326.428,390.649C326.428,390.649 333.008,399.135 328.253,407.564C326.531,408.566 324.552,408.972 322.51,408.973C318.978,408.97 315.255,407.766 312.337,406.352C301.626,401.161 295.416,399.429 284.271,396.246C281.478,395.448 277.665,394.185 273.5,392.627L273.496,392.624L273.495,392.625C263.568,388.913 251.635,383.529 246.684,378.775C246.697,378.796 246.711,378.815 246.726,378.835C246.704,378.815 246.684,378.796 246.663,378.775C247.844,380.487 251.017,382.84 253.931,384.689C252.955,386.322 250.638,387.176 248.87,388.319C245.574,384.598 243.478,383.012 242.559,377.118C242.056,373.909 242.359,371.669 243.016,369.362C244.449,370.077 246.302,371.258 248.663,373.176C256.219,379.315 259.367,384.354 280.147,386.872ZM334.28,305.021C334.416,305.115 334.554,305.209 334.688,305.301C333.688,306.557 332.357,308.065 330.732,309.56C325.258,314.598 316.366,318.732 308.771,317.989C305.367,317.656 302.292,316.317 300.014,314.151L299.618,313.528C298.051,310.642 297.523,307.092 297.635,303.338C297.928,304.636 298.308,305.826 298.765,306.911C300.213,310.348 302.419,312.74 304.997,314.256C307.438,315.691 310.204,316.336 312.966,316.334C313.117,316.334 313.269,316.333 313.419,316.329L313.44,316.329C315.787,316.268 318.121,315.746 320.239,314.854C327.973,311.599 332.942,306.5 334.28,305.021ZM316.171,238.076C316.116,239.365 316.155,240.841 316.313,242.529C317.573,255.911 333.532,277.525 355.826,286.449C373.721,293.613 383.578,284.509 386.772,280.637C377.433,292.939 369.499,293.957 366.767,293.887C356.903,293.099 346.249,287.082 336.032,279.537C324.724,271.186 315.311,252.973 312.354,239.291C313.424,238.768 314.663,238.381 316.171,238.076ZM261.359,334.325C259.758,333.189 257.643,331.606 255.489,329.761C251.082,325.982 257.601,340.088 248.72,341.882C239.838,343.675 232.978,339.363 229.356,334.011C225.736,328.659 226.682,320.788 226.682,320.788C226.682,320.788 225.463,330.145 222.923,336.109C225.524,339.135 229.776,341.449 232.543,342.027C238.281,343.227 241.69,342.996 245.407,348.443C247.201,351.07 248.49,352.891 250.326,355.364C250.56,355.283 250.812,355.239 251.072,355.239C251.279,355.239 251.48,355.267 251.671,355.319C251.854,352.599 253.572,344.027 255.063,343.237C258.911,341.199 258.441,342.601 260.213,338.084C260.751,336.71 261.135,335.479 261.359,334.325ZM256.708,178.403C275.913,176.67 275.125,171.948 266.152,167.856C257.178,163.763 251.178,159.259 234.354,159.984C218.92,160.651 219.103,170.691 219.24,172.345C218.744,169.848 217.867,166.805 216.806,163.625L215.468,159.793L215.311,159.366C220.451,156.151 224.715,154.87 229.706,154.867L229.74,154.867C232.272,154.872 234.994,155.205 238.112,155.78C251.533,158.257 265.718,164.912 278.373,170.149C280.204,173.002 281.472,175.792 282.286,177.88C281.098,177.966 279.984,178.106 279.071,178.327C273.232,178.939 259.834,180.571 256.799,180.921C254.636,181.171 252.599,181.427 250.703,181.686C244.56,182.525 228.592,184.471 225.353,188.725C223.731,190.854 222.816,195.716 225.373,200.774C229.172,208.292 234.398,214.43 245.192,214.427L245.229,214.427C247.671,214.424 250.396,214.108 253.454,213.422C256.653,212.705 259.187,211.529 261.19,210.104C256.842,214.593 246.432,219.785 234.354,214.294C222.232,208.785 219.557,194.46 221.289,189.264C223.021,184.07 237.502,180.135 256.708,178.403ZM188.545,186.589C190.282,176.409 188.698,155.225 187.408,141.49C194.15,154.916 197.823,168.848 199.309,178.343C199.522,180.018 199.691,181.217 199.78,181.809C199.784,181.846 199.789,181.882 199.793,181.92C199.341,181.3 195.608,197.135 199.879,202.015C199.879,202.015 186.342,199.497 188.545,186.589ZM332.188,214.095C335.687,221.368 343.769,227.208 352.069,229.497C348.047,229.878 343.12,229.671 337.463,228.147C321.099,223.742 315.551,204.309 330.311,208.702C330.666,210.408 331.283,212.212 332.188,214.095ZM376.658,204.69C365.36,209.657 370.804,216.529 369.494,218.987C367.703,213.395 364.447,207.338 360.353,202.585C364.485,202.481 367.51,202.367 374.455,201.542C381.401,200.718 387.957,199.725 376.658,204.69ZM414.91,275.529C409.58,292.716 394.852,289.224 393.395,288.833C392.176,288.419 391.01,287.962 389.925,287.511C389.154,287.189 388.426,286.87 387.75,286.568C390.422,283.363 392.802,279.212 394.805,273.957C394.034,276.382 391.008,287.371 399.798,286.234C409.671,284.958 414.91,275.529 414.91,275.529Z" style="fill:rgb(147,70,0);"/>
                                    <path d="M304.908,336.941C303.669,338.328 302.619,339.906 302.202,341.804C300.47,349.674 303.461,367.307 314.166,371.87C324.871,376.436 340.927,377.853 344.39,380.528C346.282,381.991 345.92,385.141 345.201,387.7C344.817,387.522 344.404,387.321 343.902,387.113C340.179,385.571 336.547,384.854 332.547,384.045C327.255,382.975 323.18,381.764 318.157,380.378C311.457,376.141 303.314,374.319 295.548,373.172C291.355,372.551 286.621,372.227 281.94,371.83C281.384,369.568 279.418,367.737 277.709,366.521C277.709,366.521 284.413,349.044 291.184,342.749C295.99,338.276 299.606,336.425 304.908,336.941ZM221.668,381.442C221.468,380.606 220.916,379.077 220.159,377.426C222.527,376.683 225.908,375.312 230.616,372.421C239.589,366.911 236.284,370.217 235.654,375.57C235.089,380.376 239.046,386.774 246.724,389.537C238.665,393.546 226.187,394.369 218.754,395.743C220.391,391.646 222.588,385.289 221.668,381.442Z" style="fill:rgb(53,25,0);"/>
                                    <path d="M251.466,355.963C250.553,355.963 249.813,356.743 249.813,357.704C249.813,358.663 250.553,359.443 251.466,359.443C252.379,359.443 253.118,358.663 253.118,357.704C253.118,356.743 252.379,355.963 251.466,355.963Z" style="fill:white;"/>
                                    <path d="M312.613,285.309C315.251,277.924 314.463,270.76 312.379,265.759C312.37,265.781 312.36,265.803 312.352,265.825C312.545,266.891 313.325,271.917 311.208,274.206C311.15,275.097 310.88,278.187 309.815,280.074C309.861,281.06 310.02,285.628 309.15,288.591C308.355,291.309 307.761,294.417 307.6,295.298C307.9,295.745 308.257,296.208 308.676,296.687L311.147,299.638C314.357,301.772 314.752,299.864 317.47,301.695C317.935,301.379 318.508,301.258 319.122,301.258L319.124,301.258C320.475,301.256 322.035,301.852 323.11,302.296C323.983,300.933 326.635,300.183 328.842,300.172C328.478,299.688 328.178,299.203 327.959,298.72C325.393,299.546 322.091,299.989 318.595,298.848C310.881,296.328 309.464,294.125 312.613,285.309ZM319.715,282.932C320.222,283.748 320.633,284.288 320.807,284.505C320.795,284.884 320.958,285.316 321.252,286.132C320.805,290.454 320.17,294.006 320.17,294.006C320.328,290.253 320.117,286.399 319.715,282.932Z" style="fill:rgb(62,4,6);"/>
                                    <path d="M323.764,311.71C324.756,310.741 325.791,309.631 326.168,309.224C326.926,309.195 327.62,309.025 328.254,308.757C326.969,309.73 325.467,310.746 323.764,311.71ZM382.165,294.897C379.55,295.742 376.889,297.093 374.585,297.802C373.234,298.218 373.622,297.871 373.177,298.317C370.366,297.145 367.703,296.385 365.055,296.387L365.038,296.387C362.887,296.389 360.747,296.892 358.551,298.084L358.829,298.448C355.13,294.91 351.367,293.519 346.343,293.521C346.207,293.521 346.072,293.521 345.937,293.525L345.917,293.525L345.989,293.897C343.336,289.826 339.852,286.779 334.969,286.784L334.946,286.784C333.489,282.727 331.073,278.565 326.555,278.026C324.931,268.327 317.289,270.619 317.717,260.152C318.532,261.768 319.401,263.361 320.321,264.916C322.037,269.972 329.655,278.384 331.188,279.327C333.234,280.586 335.439,285.703 339.768,286.962C344.096,288.222 345.671,291.448 349.135,291.92C352.598,292.394 356.532,295.226 359.761,295.226C362.987,295.226 365.878,296.411 372.59,296.565C375.27,296.626 377.598,295.002 378.748,294.567C379.721,294.198 381.762,293.913 382.165,294.897ZM319.343,313.857C317.477,314.589 315.448,315.019 313.41,315.073L313.39,315.073C313.25,315.078 313.108,315.08 312.97,315.08C310.424,315.078 307.884,314.486 305.652,313.174C303.451,311.879 301.541,309.874 300.211,307.031C300.885,307.566 301.768,308.485 302.734,309.906C304.584,312.621 305.902,313.317 309.544,314.117C313.183,314.917 313.242,313.37 315.683,313.526C316.961,313.609 318.314,313.745 319.343,313.857Z" style="fill:rgb(62,4,6);"/>
                                    <path d="M191.956,390.266C191.956,390.266 185.344,397.193 183.296,404.907C183.296,404.907 183.848,396.957 185.737,393.336C185.737,393.336 181.202,400.195 179.259,396.018C181.257,404.366 179.701,410.048 180.799,419.056C181.345,423.55 182.023,426.982 183.687,431.538C183.099,418.547 190.445,403.165 196.93,393.366C201.052,387.135 208.688,380.074 216.854,382.94C219.365,383.82 216.755,391.519 216.457,393.953C216.582,394.349 216.685,394.71 216.768,395.033C217.792,392.618 219.161,389.071 219.768,385.993C219.768,385.993 219.704,384.242 219.058,381.902C218.162,381.263 216.955,380.742 215.331,380.506C209.35,379.641 202.501,383.024 196.206,391.683C189.908,400.341 184.872,412.147 184.872,412.147C184.872,412.147 185.344,400.813 191.956,390.266ZM245.479,352.606C246.278,353.436 247.431,355.515 246.038,355.755C245.014,355.774 243.781,355.642 242.33,355.241C237.213,353.824 233.508,361.989 231.704,357.523C230.499,354.539 232.78,350.311 234.424,347.838C232.741,349.044 231.185,350.717 230.491,351.524L229.044,353.884C227.045,357.823 226.191,363.671 226.163,368.112L224.271,368.289C223.205,366.671 222.989,366.364 221.634,364.091C219.175,359.966 217.95,356.508 216.348,352.785C216.348,352.782 216.345,352.778 216.345,352.774C221.652,365.189 215.096,363.347 215.096,363.347C211.083,357.996 203.189,353.937 203.189,353.937C204.104,354.748 204.958,355.706 205.989,356.924C210.22,361.928 211.221,364.823 213.878,370.538C214.207,370.58 214.54,370.63 214.879,370.69C215.829,370.859 216.839,371.859 217.784,373.204C220.647,372.993 224.335,371.686 227.506,368.875C234.074,363.056 232.802,358.456 243.217,359.042L243.12,359.036C244.882,359.091 246.028,359.907 246.471,361.446C252.099,362.41 260.413,369.409 268.686,370.744L268.856,370.77C269.687,370.896 270.519,370.965 271.345,370.963C272.218,369.909 272.957,368.781 273.31,367.657L273.334,367.574C273.343,367.546 273.352,367.518 273.359,367.49L273.387,367.388C273.389,367.382 273.39,367.377 273.39,367.373L273.413,367.277C273.582,366.558 273.582,365.844 273.343,365.154C273.427,363.225 275.24,360.236 275.707,359.232C277.274,355.86 279.183,351.924 281.422,348.075C279.427,349.726 276.49,354.925 276.49,354.925C276.963,352.407 277.12,349.416 277.12,349.416C277.12,349.416 272.87,364.371 269.406,364.765C265.942,365.157 261.14,359.175 261.14,359.175C262.006,362.403 268.698,368.307 262.638,367.283C261.816,367.145 253.955,364.177 249.837,359.819C249.301,359.251 248.678,358.61 248.678,357.757C248.678,356.71 249.286,355.814 250.15,355.433C249.932,355.262 249.722,355.093 249.521,354.926C242.933,349.458 245.703,346.231 234.647,344.247C231.601,345.865 231.001,345.865 229.037,345.606C230.023,346.209 230.919,346.79 231.57,347.32C231.562,347.319 231.553,347.317 231.544,347.314C231.545,347.317 231.548,347.319 231.549,347.32C230.163,347.062 228.118,346.054 226.213,344.839C226.213,344.839 229.856,347.762 228.518,349.414C227.18,351.067 224.425,356.42 223.795,359.095C223.165,361.772 220.9,358.495 220.9,358.495C221.627,359.99 222.417,361.525 223.32,363.121C223.869,364.094 224.221,364.704 224.522,365.212C225.259,357.481 228.179,348.769 235.898,345.815C237.607,345.161 239.33,345.789 240.86,346.942C242.909,348.489 244.614,350.981 245.479,352.606ZM259.754,344.766C266.287,351.489 264.125,354.919 265.528,357.898C264.711,356.616 262.728,354.038 259.844,353.745C255.986,353.351 253.784,355.397 253.784,355.397C253.784,355.397 254.971,349.628 256.459,346.582C257.156,345.155 258.51,344.771 259.754,344.766ZM191.483,379.326C191.483,379.326 186.318,385.028 182.195,392.706C182.195,392.706 181.094,389.558 178.417,387.668C178.417,387.668 171.3,376.286 179.047,359.963C179.047,359.963 178.181,376.021 181.565,380.349C184.95,384.678 186.052,382.867 191.483,379.326Z" style="fill:rgb(62,4,6);"/>
                                    <path d="M287.378,269.96C287.32,266.975 285.363,263.981 283.442,262.274C279.192,258.496 265.969,252.042 258.097,248.578C250.227,245.116 235.128,241.01 231.684,233.18C232.887,236.911 234.57,240.312 238.766,241.959C242.832,243.555 246.733,245.647 250.67,247.552C259.122,251.644 269.569,256.438 277.561,261.112C282.129,263.787 285.48,267.727 287.381,272.406C287.396,271.6 287.394,270.783 287.378,269.96Z" style="fill:rgb(53,25,0);"/>
                                    <path d="M258.014,209.849C251.217,213.546 240.302,213.761 233.931,208.131C229.882,204.551 223.589,193.624 228.213,189.1C229.14,188.193 230.464,187.522 231.582,186.872L229.589,187.665C221.332,191.997 229.034,206.18 234.535,209.99C240.488,214.113 251.99,213.125 258.014,209.849Z"/>
                                    <path d="M300.445,195.87C300.835,189.734 301.286,180.006 293.146,178.922C290.798,178.609 279.563,178.213 278.008,180.799C277.24,182.077 277.991,183.586 278.507,184.752C278.223,183.689 277.622,182.048 278.325,180.989C279.81,178.762 290.909,179.371 293.031,179.698C300.454,180.842 299.726,190.105 299.306,195.668L300.445,195.87Z"/>
                                    <path d="M339.164,357.769C338.396,357.479 336.955,356.938 335.389,356.314C335.673,356.487 337.58,357.607 342.132,359.414C347.09,361.381 353.545,363.664 351.024,375.155C349.5,382.117 347.836,386.165 346.762,388.273C347.173,388.37 347.636,388.423 348.207,388.425C352.52,384.477 354.737,370.249 351.938,364.638C349.581,359.914 343.889,359.546 339.164,357.769ZM327.465,339.313C335.718,340.914 340.341,341.907 344.101,351.092C345.467,354.433 344.895,356.488 342.45,357.296C341.974,357.179 341.499,357.062 341.029,356.938C345.596,351.47 339.455,344.93 333,342.412C326.547,339.893 310.49,336.823 302.461,335.407C296.386,334.334 292.747,336.898 291.334,338.208C293.773,335.717 296.553,333.716 299.195,333.706L299.215,333.706C303.239,333.722 321.925,338.238 327.465,339.313Z" style="fill:rgb(112,64,21);"/>
                                    <path d="M252.499,184.098C255.195,185.125 263.044,186.695 265.092,190.395C267.138,194.093 266.508,201.493 261.549,206.53C261.549,206.53 266.711,197.561 264.462,192.598C262.211,187.634 257.457,185.987 252.499,184.098Z" style="fill:rgb(68,69,69);"/>
                                    <path d="M245.329,362.717C245.329,362.717 245.119,363.234 244.825,363.927C244.455,363.675 243.469,363.392 243.684,362.768C244.473,360.474 238.647,360.485 236.756,362.138C234.868,363.79 229.036,371.203 221.681,373.282C224.896,372.023 228.269,369.643 230.154,367.712C234.067,363.702 235.512,360.342 240.612,360.337L240.619,360.337C241.44,360.338 242.359,360.426 243.396,360.613C245.516,360.993 244.397,362.062 245.329,362.717Z" style="fill:rgb(112,64,21);"/>
                                    <path d="M379.015,309.976C377.724,310.381 376.121,310.66 374.157,310.662C373.681,310.662 373.183,310.645 372.664,310.61C372.628,308.725 372.677,306.31 372.656,304.328C373.337,311.013 378.279,310.143 379.015,309.976ZM311.061,265.874L311.02,265.673L311.103,265.49C312.623,262.146 312.623,257.416 312.623,257.403L312.625,257.198L312.744,257.034C313.559,255.924 313.835,253.557 313.908,251.501C312.727,248.377 311.75,245.276 311.002,242.307C311.056,244.641 310.841,247.276 310.476,250.001C311.291,251.64 311.817,254.015 311.24,257.246C309.97,264.363 310.732,265.38 310.353,268.558C309.97,271.736 307.46,273.217 307.46,273.217C307.749,273.245 308.018,273.258 308.271,273.259L308.281,273.259C312.257,273.253 311.906,269.991 311.061,265.874ZM307.006,279.663C307.095,279.893 307.14,280.288 307.079,280.952C306.932,282.533 306.684,283.336 306.554,283.95C306.577,283.974 306.593,284.006 306.631,284.083C307.886,286.654 304.926,289.341 306.643,293.539C306.932,292.129 307.383,290.096 307.925,288.242C309.197,283.895 309.905,281.058 307.006,279.663ZM307.469,273.226C310.609,274.102 310.847,275.705 309.04,278.879C308.75,279.391 308.347,279.55 307.864,279.553C307.544,279.551 307.192,279.483 306.814,279.404C307.165,279.288 307.736,278.879 308.444,277.583C309.604,275.459 307.609,273.37 307.469,273.226ZM299.482,291.884C299.683,292.34 299.909,292.783 300.109,293.295L300.106,293.298L300.109,293.296C300.374,293.978 299.915,296.122 299.795,297.237C298.878,305.816 305.896,304.481 305.896,304.481C305.896,304.481 304.689,305.435 305.642,306.706C306.232,307.492 306.981,309.714 309.535,310.657C311.106,311.236 314.782,310.817 315.303,310.806C317.842,310.746 321.772,311.265 324.265,309.09C324.265,309.09 325.059,308.168 325.821,307.405C326.583,306.643 329.311,306.575 329.603,304.896C329.895,303.214 329.487,302.245 330.462,301.964C330.96,302.441 331.498,302.908 332.056,303.357C331.335,304.821 329.302,308.221 325.924,308.221L325.701,308.221L325.551,308.385C325.547,308.391 323.908,310.184 322.588,311.428C321.966,312.013 320.593,312.385 319.146,312.401C317.862,312.414 316.548,312.139 315.683,311.475L315.459,311.302L315.195,311.404C315.183,311.409 310.98,313.06 308.183,311.808C305.398,310.562 304.443,307.555 304.441,307.546L304.38,307.358L304.207,307.263C304.195,307.257 300.381,305.16 299.49,301.75C299.03,299.986 298.872,298.361 298.895,296.719C298.908,295.542 299.017,294.349 299.17,293.087C299.271,292.685 299.375,292.283 299.482,291.884ZM343.631,296.991C343.631,296.991 338.405,304.796 333.906,301.708C329.692,298.815 329.053,296.385 328.99,296.091C327.435,299.329 336.289,304.247 339.298,305.856C340.865,302.958 342.36,300.036 343.631,296.991ZM341.855,306.982C341.13,309.665 342.28,310.853 343.009,311.316C341.614,310.63 340.297,309.763 339.57,308.729C340.966,305.851 343.016,301.79 343.779,298.368C343.779,298.368 342.879,303.204 341.855,306.982ZM357.311,306.358C357.06,312.866 365.446,314.185 365.446,314.185C363.73,314.104 362.02,313.655 359.659,312.865C358.343,312.426 356.977,311.763 355.861,311.444C356.613,309.948 357.064,308.117 357.311,306.358Z" style="fill:rgb(174,169,157);"/>
                                    <path d="M250.651,356.2C250.651,356.2 249.945,358.064 251.499,358.399C252.141,358.537 252.661,358.417 253.06,358.165C252.87,358.895 252.238,359.433 251.486,359.443L251.466,359.443C250.553,359.443 249.813,358.663 249.813,357.704C249.813,357.055 250.15,356.49 250.649,356.19L250.651,356.2Z" style="fill:rgb(101,99,89);"/>
                                    <path d="M240.979,185.108C239.233,185.401 237.158,185.825 235.196,186.405L253.763,210.12C255.941,209.481 257.584,208.657 258.799,207.872L240.979,185.108ZM288.829,192.758C289.763,193.133 291.156,193.668 292.702,194.173L281.751,180.187C280.906,180.314 280.118,180.504 279.451,180.778L288.829,192.758ZM294.219,194.642L282.804,180.06C284.742,179.883 286.822,179.966 288.342,180.074L298.711,193.318C298.557,194.593 298.337,195.532 298.337,195.532C297.057,195.384 295.617,195.047 294.219,194.642ZM234.062,186.764L252.59,210.431C251.683,210.648 250.691,210.833 249.614,210.971L231.487,187.816C232.264,187.425 233.139,187.076 234.062,186.764Z" style="fill:rgb(68,69,69);"/>
                                </g>
                            </g>
                        </g>
                    </g>
                </g>
            </g>
        </g>
    </g>
</svg>
